<?xml version="1.0" encoding="UTF-8"?>
<svg xmlns="http://www.w3.org/2000/svg" xmlns:xlink="http://www.w3.org/1999/xlink" width="192px" height="192px" viewBox="0 0 192 192" version="1.1">
<g id="surface1">
<path style=" stroke:none;fill-rule:nonzero;fill:rgb(100%,0%,0%);fill-opacity:1;" d="M 87.449219 0.375 C 55.199219 3.523438 27.601562 21.523438 11.886719 49.6875 C 6.449219 59.4375 2.664062 70.949219 0.898438 83.0625 C -0.0390625 89.289062 -0.0390625 102.710938 0.898438 108.9375 C 4.011719 130.425781 13.238281 149.023438 28.164062 163.875 C 54.226562 189.898438 92.960938 198.710938 127.800781 186.5625 C 155.324219 177 177.226562 154.988281 186.675781 127.425781 C 190.3125 116.851562 191.773438 107.925781 191.773438 96 C 191.773438 84.113281 190.3125 75.148438 186.710938 64.613281 C 176.101562 33.710938 149.960938 10.050781 118.199219 2.585938 C 109.5 0.5625 95.886719 -0.449219 87.449219 0.375 Z M 123.75 61.914062 L 123.75 69.789062 L 110.0625 103.761719 C 102.523438 122.4375 96.335938 137.8125 96.261719 137.886719 C 96.1875 137.960938 91.574219 137.960938 85.988281 137.925781 L 75.863281 137.8125 L 88.949219 105.414062 C 96.113281 87.5625 102 72.863281 102 72.675781 C 102 72.523438 94.425781 72.375 85.125 72.375 L 68.25 72.375 L 68.25 54 L 123.75 54 Z M 123.75 61.914062 "/>
</g>
</svg>
