<?xml version="1.0" standalone="no"?>
<!DOCTYPE svg PUBLIC "-//W3C//DTD SVG 20010904//EN"
 "http://www.w3.org/TR/2001/REC-SVG-20010904/DTD/svg10.dtd">
<svg version="1.0" xmlns="http://www.w3.org/2000/svg"
 width="512.000000pt" height="512.000000pt" viewBox="0 0 512.000000 512.000000"
 preserveAspectRatio="xMidYMid meet">

<g transform="translate(0.000000,512.000000) scale(0.100000,-0.100000)"
fill="#ff0000" stroke="none">
<path d="M2332 5110 c-860 -84 -1596 -564 -2015 -1315 -145 -260 -246 -567
-293 -890 -25 -166 -25 -524 0 -690 83 -573 329 -1069 727 -1465 695 -694
1728 -929 2657 -605 734 255 1318 842 1570 1577 97 282 136 520 136 838 0 317
-39 556 -135 837 -283 824 -980 1455 -1827 1654 -232 54 -595 81 -820 59z
m968 -1641 l0 -210 -365 -906 c-201 -498 -366 -908 -368 -910 -2 -2 -125 -2
-274 -1 l-270 3 349 864 c191 476 348 868 348 873 0 4 -202 8 -450 8 l-450 0
0 245 0 245 740 0 740 0 0 -211z"/>
</g>
</svg>
