<?xml version="1.0" encoding="UTF-8"?>
<svg xmlns="http://www.w3.org/2000/svg" xmlns:xlink="http://www.w3.org/1999/xlink" width="512px" height="512px" viewBox="0 0 512 512" version="1.1">
<g id="surface1">
<path style=" stroke:none;fill-rule:nonzero;fill:rgb(100%,0%,0%);fill-opacity:1;" d="M 233.199219 1 C 147.199219 9.398438 73.601562 57.398438 31.699219 132.5 C 17.199219 158.5 7.101562 189.199219 2.398438 221.5 C -0.101562 238.101562 -0.101562 273.898438 2.398438 290.5 C 10.699219 347.800781 35.300781 397.398438 75.101562 437 C 144.601562 506.398438 247.898438 529.898438 340.800781 497.5 C 414.199219 472 472.601562 413.300781 497.800781 339.800781 C 507.5 311.601562 511.398438 287.800781 511.398438 256 C 511.398438 224.300781 507.5 200.398438 497.898438 172.300781 C 469.601562 89.898438 399.898438 26.800781 315.199219 6.898438 C 292 1.5 255.699219 -1.199219 233.199219 1 Z M 330 165.101562 L 330 186.101562 L 293.5 276.699219 C 273.398438 326.5 256.898438 367.5 256.699219 367.699219 C 256.5 367.898438 244.199219 367.898438 229.300781 367.800781 L 202.300781 367.5 L 237.199219 281.101562 C 256.300781 233.5 272 194.300781 272 193.800781 C 272 193.398438 251.800781 193 227 193 L 182 193 L 182 144 L 330 144 Z M 330 165.101562 "/>
</g>
</svg>
